<?xml version="1.0" encoding="iso-8859-1"?>
<!-- Generator: Adobe Illustrator 16.0.0, SVG Export Plug-In . SVG Version: 6.00 Build 0)  -->
<!DOCTYPE svg PUBLIC "-//W3C//DTD SVG 1.1//EN" "http://www.w3.org/Graphics/SVG/1.1/DTD/svg11.dtd">
<svg version="1.1" id="Capa_1" xmlns="http://www.w3.org/2000/svg" xmlns:xlink="http://www.w3.org/1999/xlink" x="0px" y="0px"
	 width="25.476px" height="25.476px" viewBox="0 0 25.476 25.476" style="enable-background:new 0 0 25.476 25.476;"
	 xml:space="preserve">
<g>
	<path style="fill:#333333;" d="M16.987,18.365c-0.425,0-0.849-0.173-1.157-0.513c-0.791-0.873-1.917-1.371-3.09-1.371
		c-1.194,0-2.291,0.483-3.088,1.365c-0.579,0.64-1.567,0.689-2.208,0.107c-0.64-0.58-0.688-1.567-0.108-2.206
		c1.376-1.521,3.347-2.392,5.404-2.392c2.054,0,4.024,0.873,5.406,2.396c0.579,0.64,0.53,1.628-0.109,2.207
		C17.738,18.232,17.362,18.365,16.987,18.365z"/>
	<path style="fill:#333333;" d="M20.454,14.457c-0.398,0-0.798-0.152-1.102-0.456c-1.769-1.759-4.117-2.728-6.613-2.728
		c-2.501,0-4.85,0.966-6.616,2.722c-0.611,0.608-1.601,0.604-2.209-0.006c-0.608-0.612-0.606-1.602,0.007-2.21
		c2.354-2.342,5.486-3.631,8.818-3.631c3.327,0,6.458,1.292,8.816,3.638c0.612,0.608,0.615,1.597,0.008,2.21
		C21.257,14.301,20.855,14.457,20.454,14.457z"/>
	<path style="fill:#333333;" d="M23.914,10.553c-0.389,0-0.778-0.145-1.081-0.435c-2.729-2.615-6.312-4.054-10.093-4.054
		c-3.789,0-7.374,1.438-10.095,4.05c-0.622,0.597-1.611,0.577-2.209-0.046C-0.163,9.446-0.142,8.456,0.48,7.859
		c3.306-3.173,7.659-4.92,12.259-4.92c4.59,0,8.942,1.749,12.255,4.923c0.623,0.597,0.643,1.586,0.047,2.209
		C24.734,10.392,24.324,10.553,23.914,10.553z"/>
	<circle style="fill:#333333;" cx="12.74" cy="20.648" r="1.888"/>
</g>
<g>
</g>
<g>
</g>
<g>
</g>
<g>
</g>
<g>
</g>
<g>
</g>
<g>
</g>
<g>
</g>
<g>
</g>
<g>
</g>
<g>
</g>
<g>
</g>
<g>
</g>
<g>
</g>
<g>
</g>
</svg>
